<?xml version="1.0" standalone="no"?>
<!DOCTYPE svg PUBLIC "-//W3C//DTD SVG 20010904//EN"
 "http://www.w3.org/TR/2001/REC-SVG-20010904/DTD/svg10.dtd">
<svg version="1.0" xmlns="http://www.w3.org/2000/svg"
 width="512.000000pt" height="512.000000pt" viewBox="0 0 512.000000 512.000000"
 preserveAspectRatio="xMidYMid meet">

<g transform="translate(0.000000,512.000000) scale(0.100000,-0.100000)"
fill="#000000" stroke="none">
<path d="M186 5104 c-34 -11 -64 -31 -102 -68 -92 -92 -84 80 -84 -1921 0
-1759 0 -1761 20 -1783 28 -30 82 -30 110 0 20 22 20 24 20 1780 0 1943 -5
1797 63 1838 31 20 65 20 1942 20 1877 0 1911 0 1942 -20 56 -34 63 -60 63
-243 0 -148 2 -167 20 -189 11 -14 28 -28 38 -30 31 -8 81 18 87 45 4 14 5
107 3 208 -2 156 -6 189 -22 219 -31 59 -96 119 -154 140 -52 20 -79 20 -1975
19 -1679 0 -1928 -2 -1971 -15z"/>
<path d="M550 4681 c-58 -12 -107 -40 -150 -88 -79 -85 -75 -47 -75 -708 l0
-590 28 -57 c30 -61 64 -95 131 -131 l41 -22 1630 0 1630 0 45 24 c61 32 97
67 128 126 l27 50 0 600 0 600 -29 53 c-32 57 -81 102 -143 130 -35 16 -142
17 -1633 18 -877 1 -1611 -1 -1630 -5z m3235 -173 c55 -43 55 -41 55 -630 0
-507 -1 -546 -18 -577 -10 -19 -34 -43 -53 -53 -33 -17 -98 -18 -1626 -16
l-1592 3 -30 29 c-17 17 -36 46 -41 65 -14 49 -13 1064 0 1113 6 20 24 48 41
62 l31 26 1602 0 1603 0 28 -22z"/>
<path d="M973 4339 c-133 -42 -254 -156 -303 -286 -78 -205 4 -453 188 -572
142 -91 315 -101 468 -26 40 19 76 35 81 35 5 0 27 -18 48 -40 49 -50 92 -55
124 -14 32 41 26 69 -23 122 l-45 48 34 66 c94 187 58 397 -92 547 -70 69
-142 111 -224 130 -71 17 -187 12 -256 -10z m290 -163 c149 -72 223 -265 158
-410 l-22 -50 -47 46 c-54 53 -82 64 -114 47 -63 -34 -63 -75 2 -143 28 -29
50 -55 50 -58 0 -3 -22 -15 -49 -27 -67 -28 -170 -29 -246 0 -67 25 -141 94
-175 164 -36 74 -35 198 1 275 40 85 117 151 209 181 14 5 59 7 101 5 59 -2
90 -9 132 -30z"/>
<path d="M1820 4340 c-19 -19 -20 -33 -20 -352 0 -328 1 -334 24 -383 26 -56
102 -133 163 -163 172 -88 417 -6 496 166 21 45 22 63 25 372 3 320 3 326 -18
353 -27 34 -80 37 -110 7 -19 -19 -20 -33 -20 -317 0 -165 -5 -314 -10 -333
-36 -130 -241 -174 -348 -76 -46 41 -47 47 -52 384 l-5 324 -24 19 c-30 25
-76 24 -101 -1z"/>
<path d="M2709 4341 l-24 -19 0 -436 c0 -435 0 -435 22 -457 29 -29 77 -29
106 0 22 22 22 22 22 457 l0 436 -24 19 c-30 24 -72 24 -102 0z"/>
<path d="M3021 4334 c-26 -33 -27 -65 -2 -95 19 -24 23 -24 220 -27 111 -2
201 -5 201 -7 0 -2 -102 -160 -227 -351 -240 -368 -248 -384 -204 -427 21 -22
26 -22 320 -22 280 0 300 1 320 19 26 24 28 76 4 105 -17 20 -28 21 -236 23
l-218 3 230 354 c157 240 231 362 231 381 0 15 -10 36 -23 48 -23 22 -29 22
-309 22 l-287 0 -20 -26z"/>
<path d="M4214 4279 c-12 -4 -29 -18 -38 -31 -15 -20 -16 -193 -16 -1918 0
-1638 2 -1904 15 -1958 17 -72 45 -131 87 -185 l30 -37 -1949 2 -1948 3 -56
28 c-66 32 -132 99 -162 165 -21 45 -22 63 -25 378 -3 314 -4 333 -23 353 -27
29 -82 28 -109 -1 -19 -21 -20 -34 -20 -338 0 -348 5 -384 61 -491 38 -70 126
-157 197 -193 118 -60 -28 -56 2302 -56 2354 0 2188 -4 2312 62 68 36 158 128
193 199 53 104 55 125 55 644 -1 517 1 504 -54 525 -34 13 -83 -10 -91 -43 -3
-12 -6 -238 -8 -502 l-2 -480 -26 -55 c-37 -80 -81 -125 -157 -162 -57 -28
-77 -33 -142 -33 -65 0 -85 5 -142 33 -76 37 -120 82 -157 162 l-26 55 -3
1513 -2 1512 288 0 c278 0 290 -1 316 -21 59 -46 56 -5 56 -898 0 -451 3 -827
6 -836 18 -47 109 -48 133 -2 9 16 11 236 9 867 l-3 845 -29 53 c-31 55 -80
101 -132 124 -21 9 -118 14 -334 18 l-305 5 -5 330 c-3 182 -8 335 -12 342
-12 18 -61 31 -84 22z"/>
<path d="M374 2740 c-50 -20 -54 -39 -54 -267 0 -136 4 -221 11 -237 20 -44
45 -47 368 -44 l303 3 19 24 c17 21 19 42 19 242 0 232 -5 259 -47 278 -29 13
-587 14 -619 1z m516 -270 l0 -120 -205 0 -205 0 0 120 0 120 205 0 205 0 0
-120z"/>
<path d="M1344 2740 c-26 -10 -54 -48 -54 -71 0 -9 9 -28 21 -43 l20 -26 153
0 c138 0 155 2 170 19 25 27 24 78 -3 104 -20 20 -33 22 -154 24 -72 1 -142
-2 -153 -7z"/>
<path d="M1923 2740 c-44 -18 -57 -86 -23 -120 20 -20 33 -20 770 -20 737 0
750 0 770 20 27 27 26 81 -1 106 -20 18 -49 19 -758 21 -412 1 -746 -2 -758
-7z"/>
<path d="M1327 2329 c-47 -28 -40 -107 11 -128 19 -8 274 -11 875 -9 l849 3
19 24 c25 30 24 62 -2 95 l-20 26 -857 0 c-580 -1 -863 -4 -875 -11z"/>
<path d="M362 2013 c-35 -14 -42 -58 -42 -277 0 -213 0 -215 24 -243 l24 -28
312 0 312 0 24 28 c24 28 24 30 24 253 l0 225 -25 24 -24 25 -308 -1 c-169 0
-314 -3 -321 -6z m528 -273 l0 -120 -205 0 -205 0 0 120 0 120 205 0 205 0 0
-120z"/>
<path d="M1332 2013 c-21 -8 -43 -61 -36 -88 12 -48 36 -55 191 -55 130 0 145
2 163 20 33 33 30 75 -6 108 -24 21 -34 22 -162 21 -75 0 -143 -3 -150 -6z"/>
<path d="M1905 1995 c-32 -31 -33 -74 -2 -103 l23 -22 745 0 c736 0 745 0 767
20 32 30 30 82 -4 109 -26 21 -33 21 -766 21 l-739 0 -24 -25z"/>
<path d="M1311 1584 c-27 -35 -26 -57 3 -91 l24 -28 829 -3 c455 -2 843 0 861
3 65 12 93 78 52 123 l-21 22 -864 0 -864 0 -20 -26z"/>
<path d="M349 1271 c-24 -19 -24 -19 -24 -256 0 -237 0 -237 24 -256 22 -18
43 -19 336 -19 l314 0 20 26 c20 25 21 39 21 251 l0 224 -25 24 -24 25 -309 0
c-290 0 -311 -1 -333 -19z m541 -256 l0 -125 -205 0 -205 0 0 125 0 125 205 0
205 0 0 -125z"/>
<path d="M1327 1279 c-46 -27 -41 -105 9 -128 14 -6 79 -11 154 -11 120 0 131
2 154 23 36 32 39 74 6 107 -18 18 -33 20 -162 20 -81 0 -151 -5 -161 -11z"/>
<path d="M1902 1267 c-29 -31 -28 -72 3 -102 l24 -25 739 0 c733 0 740 0 766
21 33 26 36 79 6 109 -20 20 -33 20 -768 20 l-749 0 -21 -23z"/>
<path d="M1333 878 c-48 -23 -51 -103 -4 -127 13 -8 291 -11 875 -11 l855 0
20 26 c26 33 27 65 2 95 l-19 24 -854 2 c-585 1 -860 -2 -875 -9z"/>
</g>
</svg>
